<svg width="1200" height="500" viewBox="0 0 1200 500" fill="none" xmlns="http://www.w3.org/2000/svg">
  <!-- States (staggered vertically, extra margin) -->
  <rect x="60" y="60" width="220" height="80" rx="20" fill="#b2f5b2" stroke="#2e7d32" stroke-width="3"/>
  <text x="170" y="100" text-anchor="middle" font-size="20" font-family="monospace" fill="#222">empty</text>
  <text x="170" y="120" text-anchor="middle" font-size="14" font-family="monospace" fill="#222">{ items: [], checkedOut: false }</text>

  <rect x="360" y="220" width="260" height="80" rx="20" fill="#b2f5b2" stroke="#2e7d32" stroke-width="3"/>
  <text x="490" y="260" text-anchor="middle" font-size="20" font-family="monospace" fill="#222">item added</text>
  <text x="490" y="280" text-anchor="middle" font-size="14" font-family="monospace" fill="#222">{ items: [A], checkedOut: false }</text>

  <rect x="700" y="60" width="260" height="80" rx="20" fill="#b2f5b2" stroke="#2e7d32" stroke-width="3"/>
  <text x="830" y="100" text-anchor="middle" font-size="20" font-family="monospace" fill="#222">item removed</text>
  <text x="830" y="120" text-anchor="middle" font-size="14" font-family="monospace" fill="#222">{ items: [], checkedOut: false }</text>

  <rect x="1000" y="220" width="160" height="80" rx="20" fill="#b2f5b2" stroke="#2e7d32" stroke-width="3"/>
  <text x="1080" y="260" text-anchor="middle" font-size="20" font-family="monospace" fill="#222">checked out</text>
  <text x="1080" y="280" text-anchor="middle" font-size="14" font-family="monospace" fill="#222">{ checkedOut: true }</text>

  <!-- Transitions (staggered, no overlap) -->
  <path d="M280 100 Q360 100 360 220" stroke="#1976d2" stroke-width="3" fill="none" marker-end="url(#arrow)"/>
  <text x="320" y="140" font-size="16" font-family="monospace" fill="#1976d2">addItem</text>
  <text x="320" y="160" font-size="13" font-family="monospace" fill="#f57c00">ItemAdded</text>

  <path d="M620 260 Q700 260 700 140" stroke="#1976d2" stroke-width="3" fill="none" marker-end="url(#arrow)"/>
  <text x="660" y="220" font-size="16" font-family="monospace" fill="#1976d2">removeItem</text>
  <text x="660" y="240" font-size="13" font-family="monospace" fill="#f57c00">ItemRemoved</text>

  <path d="M960 100 Q1000 100 1000 220" stroke="#1976d2" stroke-width="3" fill="none" marker-end="url(#arrow)"/>
  <text x="980" y="140" font-size="16" font-family="monospace" fill="#1976d2">checkout</text>
  <text x="980" y="160" font-size="13" font-family="monospace" fill="#f57c00">CheckedOut</text>

  <!-- Projection box below -->
  <rect x="500" y="400" width="300" height="80" rx="20" fill="#b2f5b2" stroke="#2e7d32" stroke-width="3"/>
  <text x="650" y="440" text-anchor="middle" font-size="20" font-family="monospace" fill="#222">Cart Projection</text>
  <text x="650" y="460" text-anchor="middle" font-size="14" font-family="monospace" fill="#222">{ ...cart analytics... }</text>

  <!-- Arrows from each state to projection -->
  <line x1="170" y1="140" x2="650" y2="400" stroke="#1976d2" stroke-width="2" marker-end="url(#arrow)"/>
  <line x1="490" y1="300" x2="650" y2="400" stroke="#1976d2" stroke-width="2" marker-end="url(#arrow)"/>
  <line x1="830" y1="140" x2="650" y2="400" stroke="#1976d2" stroke-width="2" marker-end="url(#arrow)"/>
  <line x1="1080" y1="300" x2="650" y2="400" stroke="#1976d2" stroke-width="2" marker-end="url(#arrow)"/>

  <defs>
    <marker id="arrow" markerWidth="10" markerHeight="10" refX="8" refY="5" orient="auto" markerUnits="strokeWidth">
      <path d="M0,0 L10,5 L0,10 L3,5 Z" fill="#1976d2"/>
    </marker>
  </defs>
</svg> 